<?xml version="1.0" encoding="UTF-8"?> <!-- Generator: Adobe Illustrator 22.1.0, SVG Export Plug-In . SVG Version: 6.00 Build 0) --> <svg xmlns="http://www.w3.org/2000/svg" xmlns:xlink="http://www.w3.org/1999/xlink" id="Layer_1" x="0px" y="0px" viewBox="0 0 280 60" style="enable-background:new 0 0 280 60;" xml:space="preserve"> <style type="text/css"> .st0{fill-rule:evenodd;clip-rule:evenodd;fill:#4D4D4F;} .st1{clip-path:url(#SVGID_2_);fill-rule:evenodd;clip-rule:evenodd;fill:url(#SVGID_3_);} .st2{clip-path:url(#SVGID_2_);} .st3{opacity:0.14;fill-rule:evenodd;clip-rule:evenodd;fill:#FFFFFF;} </style> <path class="st0" d="M79.1,56.3v-4.1c0-0.9,0-1.7-0.5-2.3c-0.3-0.3-0.7-0.5-1.4-0.5c-1,0-2.3,0.7-2.3,2.3v4.6H73v-8.4h1.9v0.9 c0.7-0.8,1.8-1,2.6-1c1,0,1.9,0.3,2.4,0.9c1,1,1,2.4,1,3.7v4H79.1z"></path> <path class="st0" d="M92.8,52.7c0.1,1.3,0.9,2,2.3,2c1.2,0,2-0.6,2.2-1.1l1.6,0.7c-0.5,0.9-1.7,2.1-3.8,2.1c-2.5,0-4.2-1.7-4.2-4.2 c0-2.5,1.5-4.5,4.1-4.5c1.2,0,2.5,0.5,3.2,1.5c0.6,0.8,0.8,2,0.9,3.5H92.8L92.8,52.7z M92.8,51.3L92.8,51.3h4.4 c-0.1-1.1-0.9-2-2.1-2C93.8,49.3,92.9,50.1,92.8,51.3z"></path> <path class="st0" d="M112.8,49.7h-1.9v3.4c0,1.2,0.5,1.6,1.4,1.6c0.3,0,0.7,0,1.3-0.2v1.7c-0.2,0-0.8,0.1-1.2,0.1 c-0.7,0-1.9-0.1-2.5-0.7c-0.7-0.7-0.8-1.8-0.8-2.5v-3.4h-0.8v-1.8h0.8v-1.3l1.8-1.7v3h2.4C113.2,48.4,113,49.2,112.8,49.7z"></path> <path class="st0" d="M125.8,56.3l-3.6-8.4h2l2.3,5.5c0.4-0.8,1.3-2.6,1.7-3.5h1.1c0.4,0.8,1.2,2.6,1.6,3.4l2.3-5.5h2l-3.6,8.4h-1.4 l-1.6-3.5c-0.4,0.8-1.2,2.6-1.6,3.5H125.8z"></path> <path class="st0" d="M152.7,52.1c0,2.4-1.6,4.3-4.1,4.3c-2.6,0-4.1-1.9-4.1-4.4c0-2.4,1.5-4.3,4.1-4.3 C151.3,47.7,152.7,49.6,152.7,52.1L152.7,52.1z M146.3,52L146.3,52c0,1.4,0.8,2.6,2.2,2.6c1.4,0,2.3-1.1,2.3-2.5 c0-1.4-0.8-2.6-2.2-2.6C147.2,49.5,146.3,50.7,146.3,52z"></path> <path class="st0" d="M167.7,49.6c-0.2-0.2-0.6-0.3-0.9-0.3c-1.1,0-2.3,1-2.3,2.5v4.4h-1.9v-8.4h1.9v1.4c0.6-1.1,1.8-1.5,2.7-1.5 c0.8,0,1.4,0.3,1.9,0.7L167.7,49.6z"></path> <polygon class="st0" points="180.1,44.9 180.1,51.4 184,47.9 186.8,47.9 183.6,50.7 187.3,56.3 185.1,56.3 182.2,51.9 180.1,53.8 180.1,56.3 178.2,56.3 178.2,44.9 "></polygon> <path class="st0" d="M199.5,52.7c-1.3-0.2-3-0.6-3-2.2c0-1.9,1.9-2.8,3.7-2.8c1.8,0,3.5,0.8,3.7,2.4h-1.8c-0.1-0.5-0.8-0.7-1.9-0.7 c-0.8,0-1.9,0.2-1.9,0.9c0,0.5,0.8,0.6,1.6,0.7l0.9,0.1c2.1,0.3,3.3,0.7,3.3,2.4c0,2-2,2.9-4,2.9c-1.9,0-4-0.6-4-2.6h1.8 c0,0.7,1,0.9,2.1,0.9c1,0,2.1-0.3,2.1-1c0-0.6-0.7-0.7-1.8-0.9L199.5,52.7z"></path> <path class="st0" d="M2,2.3h6.7v6.6H2V2.3L2,2.3z M8.6,11.1L8.6,11.1v25.2H2V11.1H8.6z"></path> <path class="st0" d="M32.6,36.3V23.9c0-2.3-0.1-4.5-1.4-5.9c-0.8-0.9-2-1.5-3.6-1.5c-2.4,0-5.9,1.7-5.9,5.7v14.2H15V11.1h6.7v2.2 c2-1.8,4.7-2.6,7.1-2.6c3.3,0,5.9,1.1,7.5,2.8c2.9,3.1,2.9,7.1,2.9,11v11.8H32.6z"></path> <path class="st0" d="M56.6,17.8h-4.4v8.8c0,2.9,0.9,4.3,3.4,4.3c0.8,0,2-0.2,3.5-0.5c0.1,2,0.1,4,0.2,5.9c-0.8,0.1-2.2,0.3-3.3,0.3 c-2.5,0-5.8-0.5-7.8-2.4c-2.3-2.1-2.6-5.3-2.6-7.6v-8.8h-2.5v-6.7h2.5V7.9l6.7-6.2v9.4h6.2C57.8,13,57.2,15.9,56.6,17.8z"></path> <path class="st0" d="M68.3,25.9c0.4,3.2,2.3,5,5.7,5c2.9,0,5.1-1.5,5.7-2.6l5.7,2.5c-1.5,2.6-5.4,6.1-11.4,6.1 c-7.6,0-12.5-5.2-12.5-12.8c0-7.4,4.4-13.4,12.5-13.4c7.1,0,12.1,4.7,12.2,15.2H68.3L68.3,25.9z M68.3,20.9L68.3,20.9h10.8 c-0.1-2.6-1.9-4.8-5.2-4.8C70.6,16.2,68.6,18.3,68.3,20.9z"></path> <rect x="91.1" y="2.3" class="st0" width="6.7" height="34.1"></rect> <rect x="104.1" y="2.3" class="st0" width="6.7" height="34.1"></rect> <path class="st0" d="M117.1,2.3h6.7v6.6h-6.7V2.3L117.1,2.3z M123.7,11.1L123.7,11.1v25.2h-6.7V11.1H123.7z"></path> <path class="st0" d="M130.1,36.3V2.3h5.8c4,7.8,8.1,15.5,12.2,23.3c4.1-7.8,8.1-15.5,12.2-23.3h5.8v34.1h-6.7V18.6 c-3.1,6-6.2,11.9-9.3,17.8h-3.7l-9.4-17.7v17.7H130.1z"></path> <polygon class="st0" points="192.6,22.5 179.1,22.5 179.1,29.6 195.4,29.6 195.4,36.3 172.4,36.3 172.4,2.3 195,2.3 195,9 179.1,9 179.1,15.8 192.6,15.8 "></polygon> <rect x="231.1" y="2.3" class="st0" width="6.7" height="34.1"></rect> <path class="st0" d="M262.3,2.3l15.2,34.1h-7.3l-2.9-6.5h-15.4l-3,6.5h-7.2l15.5-34.1H262.3L262.3,2.3z M254.9,23.2L254.9,23.2h9.3 l-4.6-10.4L254.9,23.2z"></path> <g> <defs> <path id="SVGID_1_" d="M199.8,26.1c0-3.7,0-9.8,0-13.4V8.4c0-3.7,2.6-5.2,5.8-3.4l3.7,2.1c3.2,1.8,8.4,4.9,11.6,6.7l3.7,2.1 c3.2,1.9,3.2,4.9,0,6.7l-3.7,2.1c-3.2,1.9-8.4,4.9-11.6,6.7l-3.7,2.1c-3.2,1.8-5.8,0.3-5.8-3.4V26.1z"></path> </defs> <clipPath id="SVGID_2_"> <use xlink:href="#SVGID_1_" style="overflow:visible;"></use> </clipPath> <linearGradient id="SVGID_3_" gradientUnits="userSpaceOnUse" x1="213.4201" y1="-6.1331" x2="213.4201" y2="44.8741"> <stop offset="0" style="stop-color:#6DCEF5"></stop> <stop offset="1" style="stop-color:#0070AA"></stop> </linearGradient> <path class="st1" d="M199.8,26.1c0-3.7,0-9.8,0-13.4V8.4c0-3.7,2.6-5.2,5.8-3.4l3.7,2.1c3.2,1.8,8.4,4.9,11.6,6.7l3.7,2.1 c3.2,1.9,3.2,4.9,0,6.7l-3.7,2.1c-3.2,1.9-8.4,4.9-11.6,6.7l-3.7,2.1c-3.2,1.8-5.8,0.3-5.8-3.4V26.1z"></path> <g class="st2"> <path class="st3" d="M198.5,19.8c11.7-4.5,24.3-3.3,29.4-2.4c4.9,0.8-30.3-22.1-30.3-22.1L198.5,19.8z"></path> </g> </g> </svg> 